<?xml version="1.0" encoding="utf-8"?>
<!-- Generator: Adobe Illustrator 17.0.0, SVG Export Plug-In . SVG Version: 6.00 Build 0)  -->
<!DOCTYPE svg PUBLIC "-//W3C//DTD SVG 1.1//EN" "http://www.w3.org/Graphics/SVG/1.1/DTD/svg11.dtd">
<svg version="1.1" id="Layer_1" xmlns="http://www.w3.org/2000/svg" xmlns:xlink="http://www.w3.org/1999/xlink" x="0px" y="0px"
	 width="1024px" height="768px" viewBox="0 0 1024 768" enable-background="new 0 0 1024 768" xml:space="preserve">
<g>
	<path fill="#FFFFFF" stroke="#FFD700" d="M489.196,383.55c-0.227-0.17-0.454-0.34-0.681-0.51c-1.611,1.404-3.254,2.772-4.823,4.221
		c-1.536,1.419-2.804,3.216-4.524,4.333c-6.188,4.023-12.325,8.247-19.732,9.802c-3.95,0.829-6.344,0.313-7.151-4.164
		c-0.265-1.472,0.6-4.275,1.483-4.817c4.633-2.845,9.316-5.615,13.87-8.582c8.325-5.422,16.343-11.27,23.84-17.809
		c4.176-3.642,8.492-7.134,12.515-10.937c3.2-3.026,6.249-6.263,8.993-9.703c2.041-2.558,3.625-5.519,5.145-8.439
		c0.819-1.572-0.204-3.758-1.579-3.888c-1.231-0.117-2.63-0.168-3.724,0.296c-3.085,1.309-6.236,2.614-9.02,4.441
		c-4.41,2.894-8.67,6.055-12.762,9.388c-5.168,4.21-10.306,8.498-15.083,13.136c-5.262,5.109-10.219,10.55-15.086,16.043
		c-3.499,3.949-6.741,8.142-9.211,12.865c-0.687,1.314-1.286,2.988-2.423,3.694c-3.547,2.202-7.283,4.123-11.041,5.959
		c-3.807,1.859-7.785,3.137-12.149,2.814c-2.969-0.219-4.961-2.564-4.391-5.485c0.185-0.945,0.488-1.868,0.742-2.818
		c0.474-0.031,0.868-0.005,1.238-0.088c7.362-1.641,14.124-4.666,20.207-9.103c1.655-1.207,3.088-2.796,4.369-4.411
		c1.115-1.407,0.392-3.205-1.271-3.394c-1.474-0.168-3.074-0.305-4.469,0.082c-8.339,2.312-14.908,7.294-20.364,13.884
		c-0.687,0.83-1.368,1.778-2.267,2.3c-5.71,3.314-11.48,6.524-17.23,9.769c1.603-2.298,3.415-4.317,5.154-6.398
		c0.931-1.114,1.808-2.289,2.576-3.519c0.659-1.054-0.165-1.224-0.95-1.136c-0.403,0.045-0.793,0.338-1.16,0.567
		c-3.875,2.413-7.622,5.072-11.663,7.16c-2.192,1.132-4.865,1.397-7.359,1.848c-0.986,0.178-1.999-0.201-2.253-1.554
		c-0.293-1.564,1.367-5.711,2.774-6.374c2.703-1.274,5.471-2.41,8.159-3.713c4.451-2.157,8.879-4.363,13.272-6.635
		c1.074-0.556,2.567-1.34,2.027-2.782c-0.597-1.597-2.403-1.06-3.551-0.802c-5.151,1.159-9.838,3.458-14.091,6.559
		c-3.522,2.567-6.731,5.603-10.406,7.91c-3.836,2.409-8.043,4.237-12.133,6.227c-1.125,0.548-2.595,0.552-3.305-0.525
		c-0.474-0.72-0.443-2.065-0.136-2.958c1.37-3.983,3.953-7.232,6.661-10.387c1.927-2.245,3.85-4.496,5.676-6.822
		c0.317-0.403,0.138-1.195,0.189-1.807c-0.59,0.075-1.299-0.036-1.751,0.254c-4.246,2.722-8.437,5.531-12.669,8.275
		c-2.006,1.301-4.093,2.477-6.098,3.778c-3.662,2.375-7.291,4.801-10.933,7.206c-0.02-0.653,0.146-1.05,0.417-1.353
		c2.129-2.378,4.294-4.724,6.414-7.11c1.274-1.434,2.638-2.827,3.658-4.431c0.473-0.743,0.222-1.947,0.299-2.941
		c-0.829,0.188-1.793,0.166-2.466,0.597c-4.848,3.109-9.656,6.282-14.432,9.5c-1.265,0.852-2.375,1.934-3.556,2.91
		c0.094,0.123,0.188,0.246,0.282,0.369c0.208-0.039,0.457-0.016,0.618-0.125c4.195-2.829,8.375-5.679,12.577-8.497
		c0.368-0.247,0.871-0.293,1.311-0.433c-0.152,0.52-0.16,1.159-0.477,1.541c-2.596,3.117-5.285,6.158-7.871,9.283
		c-1.187,1.435-2.209,3.007-3.305,4.516c0.104,0.13,0.208,0.26,0.312,0.391c0.631-0.068,1.383,0.064,1.872-0.235
		c3.422-2.093,6.816-4.236,10.168-6.439c5.048-3.317,10.046-6.71,15.087-10.037c1.138-0.751,2.366-1.364,3.553-2.04
		c0.129,0.134,0.259,0.269,0.388,0.404c-0.461,0.684-0.859,1.423-1.394,2.044c-3.44,3.992-6.336,8.331-8.203,13.273
		c-0.472,1.248-0.811,2.737,0.262,3.995c1.07,1.254,2.608,0.931,3.699,0.516c3.336-1.269,6.582-2.795,9.796-4.359
		c1.875-0.913,3.623-2.089,5.53-3.206c-0.614,1.238-1.329,2.27-1.65,3.413c-0.684,2.435-0.49,4.194,1.472,5.018
		c1.221,0.512,3.005,0.636,4.184,0.124c4.475-1.947,8.824-4.188,13.18-6.399c1.312-0.666,2.493-1.591,3.734-2.397
		c-1.173,2.012-2.471,3.874-3.939,5.591c-1.627,1.904-3.188,3.974-5.17,5.442c-4.412,3.266-9.181,6.049-13.59,9.319
		c-3.556,2.638-7.022,5.48-10.113,8.638c-2.889,2.951-5.361,6.344-7.767,9.72c-1.441,2.022-2.343,4.391-1.865,7.037
		c0.358,1.984,1.789,2.562,3.389,1.316c0.305-0.237,0.568-0.53,0.838-0.809c3.076-3.185,6.15-6.372,9.225-9.558
		c0.116-0.12,0.239-0.233,0.349-0.358c3.713-4.262,7.442-8.509,11.129-12.793c2.32-2.696,4.518-5.499,6.882-8.155
		c1.489-1.672,2.971-3.5,4.829-4.666c4.925-3.092,10.055-5.857,15.097-8.763c1.136-0.655,2.245-1.356,3.367-2.036
		c0.016,0.742-0.209,1.212-0.431,1.684c-1.446,3.071-0.002,6.597,3.259,7.416c1.566,0.393,3.395,0.617,4.904,0.196
		c4.53-1.264,9.057-2.648,13.397-4.44c3.242-1.338,6.192-3.382,9.531-5.257c-0.142,0.836-0.239,1.363-0.319,1.892
		c-0.702,4.658,0.624,7.599,5.903,7.526c5.971-0.082,11.118-2.798,16.161-5.657c1.892-1.073,3.715-2.268,5.889-3.603
		c-1.788,3.045-3.807,5.533-2.125,9.111c1.994-0.164,4.176,0.1,5.997-0.589c3.339-1.262,6.491-3.038,9.672-4.693
		c1.886-0.981,3.678-2.142,5.586-3.266c-0.468,1.807-1.022,3.388-1.254,5.015c-0.188,1.321,0.16,2.779,1.762,2.977
		c1.384,0.171,2.874,0.059,4.235-0.269c4.776-1.152,8.794-3.973,13.078-6.201c1.331-0.692,2.577-1.545,3.951-2.378
		c-0.718,1.463-1.388,2.749-1.986,4.068c-0.898,1.981-0.415,4.528,1.107,4.767c1.95,0.307,4.13,0.536,5.956-0.027
		c4.261-1.314,8.193-3.446,11.796-6.137c0.594-0.443,1.366-0.647,2.33-1.087c-0.738,1.624-1.443,2.891-1.903,4.242
		c-1.046,3.076,0.052,3.834,2.397,3.808c1.814-0.02,3.452-0.349,5.036-1.216c2.248-1.23,4.591-2.294,6.802-3.584
		c3.465-2.021,6.861-4.16,10.258-6.294c0.229-0.144,0.221-0.665,0.323-1.011c-0.32,0.036-0.697-0.025-0.951,0.123
		c-4.698,2.738-9.34,5.575-14.096,8.207c-1.228,0.68-2.796,0.772-4.222,1.062c-1.3,0.265-1.702-0.634-1.615-1.636
		c0.197-2.287,0.702-4.452,2.188-6.377c0.532-0.689,1.861-1.581,0.866-2.976c-0.577,0.349-1.172,0.559-1.558,0.966
		c-4.489,4.741-10.014,7.819-16.119,9.864c-1.573,0.527-3.617,0.659-4.806-0.778c-1.039-1.256-0.802-3.03,0.112-4.423
		c1.335-2.035,2.703-4.071,4.275-5.921c3.802-4.478,8.758-7.366,14.033-9.764c2.842-1.292,5.831-1.862,8.929-1.57
		c0.638,0.06,1.382,0.645,1.76,1.203c0.226,0.334,0.018,1.236-0.305,1.625c-1.862,2.239-4.292,3.755-6.99,4.721
		c-1.083,0.388-1.695,0.986-1.437,1.892c0.282,0.991,1.326,1.132,2.215,0.64c2.367-1.31,4.771-2.577,7.012-4.082
		c1.059-0.712,1.837-1.885,2.639-2.929c1.222-1.591-0.449-3.913-3.031-4.096c-3.249-0.231-6.452,0.032-9.581,1.092
		c-6.498,2.201-11.992,5.911-16.812,10.747c-1.297,1.301-2.844,2.397-4.405,3.383c-2.621,1.654-5.313,3.204-8.035,4.688
		c-3.325,1.813-6.748,3.315-10.698,3.102c-1.289-0.069-1.621-0.802-1.534-1.742c0.268-2.885,1.375-5.369,3.617-7.344
		c5.28-4.652,10.585-9.282,15.718-14.094c3.388-3.176,6.561-6.593,9.697-10.024c1.447-1.583,2.937-2.274,5.148-2.222
		c6.884,0.161,13.775,0.058,20.663,0.057c0.389,0,0.883,0.143,1.143-0.042c0.441-0.314,0.899-0.797,1.017-1.288
		c0.056-0.235-0.604-0.744-1.027-0.958c-0.311-0.158-0.762-0.036-1.151-0.043c-6.755-0.111-13.511-0.223-20.266-0.336
		c-0.198-0.003-0.395-0.027-0.694-0.049c1.891-2.316,3.756-4.448,5.442-6.714c1.404-1.888,3.034-3.755,2.684-6.74
		c-0.754,0.277-1.491,0.351-1.951,0.748c-4.494,3.872-8.968,7.768-13.378,11.735c-0.804,0.723-1.534,1.078-2.609,1.042
		c-4.588-0.155-9.178-0.262-13.768-0.342c-1.728-0.03-2.184,0.659-1.532,2.56c4.676,0,9.458,0,14.626,0
		c-0.499,0.658-0.692,0.961-0.931,1.222c-3.719,4.065-7.388,8.177-11.183,12.171c-4.05,4.262-7.572,8.913-10.79,13.819
		c-0.484,0.738-1.222,1.398-1.988,1.846c-2.902,1.697-5.845,3.326-8.807,4.917c-2.912,1.564-5.905,2.895-9.48,2.36
		c-0.654-1.966,0.119-3.698,1.333-5.13c2.809-3.314,5.807-6.467,8.644-9.759C488.652,385.361,488.836,384.38,489.196,383.55z
		 M588.143,444.321c0.577,0,0.987,0.083,1.35-0.014c1.934-0.515,3.507-1.513,3.188-2.895c-0.378-1.639,0.236-3.096,1.139-4.395
		c3.42-4.914,6.762-9.889,10.374-14.659c3.365-4.442,7.047-8.643,10.57-12.967c2.242-2.752,4.405-5.57,6.685-8.291
		c1.433-1.71,2.789-3.618,4.578-4.869c4.183-2.924,8.698-5.371,12.908-8.26c5.164-3.545,9.999-7.523,13.982-12.419
		c0.993-1.221,1.895-2.529,2.72-3.87c0.842-1.369,0.398-3.268-0.758-3.278c-1.26-0.011-2.799,0.049-3.738,0.735
		c-3.523,2.572-7.094,5.164-10.201,8.204c-6.169,6.036-12.033,12.382-18.051,18.573c-0.555,0.571-1.253,1.13-1.991,1.377
		c-3.392,1.133-6.787,2.291-10.247,3.182c-5.818,1.498-11.748,2.455-17.678,0.815c-4.911-1.358-8.507-4.258-10.096-9.434
		c-1.158-3.771-1.134-7.492-0.539-11.275c0.673-4.278,1.971-8.407,4.342-12.021c2.596-3.956,5.349-7.856,8.447-11.422
		c3.284-3.781,6.839-7.396,10.673-10.611c3.566-2.991,7.646-5.372,11.514-8c6.263-4.254,13.163-7.178,20.373-9.311
		c2.949-0.873,6.092-1.113,9.16-1.552c4.328-0.62,8.658-0.606,12.943,0.354c2.869,0.643,5.378,3.254,5.546,5.57
		c0.257,3.533-0.807,6.677-2.695,9.601c-4.716,7.309-10.955,13.095-18.049,18.016c-5.151,3.573-10.445,6.904-16.391,9.038
		c-4.201,1.508-8.385,3.109-12.948,3.087c-2.703-0.013-5.709,0.755-6.967-2.794c-1.548,0.908-2.938,1.6-2.74,3.492
		c0.198,1.891,1.671,2.679,3.155,2.77c3.592,0.221,7.339,0.729,10.782-0.007c9.108-1.946,17.539-5.757,25.252-11.023
		c6.224-4.249,12.13-8.909,17.173-14.547c3.575-3.996,6.94-8.187,7.656-13.765c0.454-3.541,0.126-6.455-3.589-9.013
		c-2.644-1.82-5.655-2.277-8.685-2.391c-3.246-0.122-6.542-0.081-9.755,0.344c-3.913,0.518-7.828,1.279-11.626,2.347
		c-9.139,2.57-17.391,7.034-25.193,12.383c-7.381,5.06-13.835,11.125-19.61,17.934c-4.273,5.038-7.266,10.838-9.713,16.904
		c-1.687,4.18-2.177,8.68-2.234,13.155c-0.052,4.119,1.048,7.999,4.125,10.97c4.913,4.743,11.072,5.512,17.441,4.817
		c5.458-0.595,10.737-2.141,15.831-4.244c0.846-0.349,1.707-0.662,2.863-1.108c-3.25,3.786-6.266,7.268-9.245,10.781
		c-2.408,2.84-4.845,5.661-7.136,8.594c-2.513,3.217-4.974,6.483-7.272,9.855c-2.447,3.59-4.73,7.297-6.974,11.019
		C587.997,441.125,587.569,442.648,588.143,444.321z M666.734,394.282c-0.188,1.383-0.418,2.508-0.477,3.643
		c-0.093,1.78,0.254,3.716,1.733,4.623c1.954,1.198,4.312,1.416,6.666,0.965c5.878-1.126,11.114-3.68,16.033-7.003
		c1.205-0.814,2.56-1.404,4.011-2.187c-0.075,0.566-0.094,0.943-0.178,1.305c-1.12,4.841,0.968,8.246,6.118,7.939
		c3.029-0.181,6.211-0.889,8.951-2.163c4.874-2.266,9.476-5.12,14.163-7.78c0.87-0.494,1.601-1.232,2.396-1.857
		c-0.153-0.193-0.307-0.387-0.46-0.58c-0.516,0.373-1.002,0.8-1.553,1.11c-6.151,3.456-12.052,7.47-19.059,9.085
		c-1.432,0.33-3.093,0.342-4.5-0.042c-2.501-0.683-2.758-3.101-2.825-5.153c-0.054-1.661,0.171-3.512,2.352-4.277
		c1.419-0.498,2.722-1.386,4-2.217c5.518-3.588,11.096-7.094,16.481-10.874c4.465-3.134,8.758-6.525,13.001-9.959
		c3.539-2.863,7.013-5.829,10.302-8.973c4.891-4.674,9.754-9.399,14.308-14.395c2.119-2.325,3.577-5.284,5.152-8.059
		c0.867-1.529,0.444-3.416-0.906-4.036c-0.958-0.44-2.258-0.441-3.337-0.251c-3.433,0.603-6.452,2.298-9.266,4.233
		c-4.573,3.145-9.125,6.346-13.457,9.809c-4.922,3.934-9.766,8-14.324,12.344c-4.717,4.496-9.149,9.304-13.524,14.14
		c-4.973,5.497-9.681,11.219-12.63,18.15c-0.152,0.357-0.6,0.623-0.96,0.852c-5.744,3.647-11.506,7.227-18.255,8.84
		c-3.001,0.718-5.5-0.056-6.429-2.43c-0.231-0.59-0.192-1.279-0.337-1.909c-0.561-2.445,0.213-4.178,2.296-5.285
		c1.391-0.74,2.783-1.499,4.086-2.381c7.295-4.941,14.732-9.695,21.789-14.956c6.574-4.9,12.839-10.233,19.036-15.612
		c3.616-3.139,6.99-6.598,10.176-10.178c2.711-3.046,5.125-6.383,7.42-9.76c1.336-1.967,1.431-4.471,0.052-5.409
		c-1.663-1.132-3.415-0.755-5.034-0.208c-4.886,1.651-9.139,4.53-13.335,7.428c-2.825,1.951-5.453,4.195-8.106,6.385
		c-4.645,3.835-9.46,7.501-13.799,11.661c-4.935,4.731-9.463,9.892-14.1,14.928c-4.374,4.75-8.235,9.894-11.403,15.536
		c-0.634,1.129-1.007,2.588-1.947,3.321c-1.732,1.349-3.789,2.285-5.725,3.369c-1.594,0.893-3.198,1.769-4.813,2.622
		c-2.618,1.383-5.287,2.599-8.369,2.367c-1.154-0.087-1.582-0.707-1.144-1.728c0.532-1.242,1.024-2.581,1.874-3.593
		c2.687-3.198,5.517-6.277,8.329-9.367c0.778-0.855,1.406-1.681,0.927-3.078c-0.469,0.165-0.993,0.212-1.32,0.49
		c-1.258,1.067-2.54,2.129-3.654,3.339c-2.455,2.666-4.945,5.319-7.169,8.173c-1.794,2.302-3.297,4.874-1.832,8.004
		c4.888,0.37,8.836-0.823,13.626-3.832C660.626,397.626,663.608,396.063,666.734,394.282z M339.923,401.943
		c-0.129-0.161-0.258-0.323-0.387-0.484c-1.563,0.953-3.151,1.868-4.683,2.868c-4.496,2.934-9.392,4.038-14.637,2.923
		c-1.121-0.238-2.22-1.306-3.001-2.261c-1.632-1.995-1.313-4.47-1.211-6.839c0.139-3.246,1.025-5.912,4.048-7.916
		c6.007-3.982,11.568-8.577,16.087-14.263c1.165-1.466,2.104-3.162,2.86-4.879c0.328-0.746-0.07-1.811-0.138-2.731
		c-0.796,0.093-1.606,0.126-2.384,0.302c-0.46,0.104-0.879,0.415-1.297,0.665c-3.493,2.086-6.631,4.614-9.324,7.663
		c-3.866,4.379-7.711,8.774-10.256,14.127c-0.351,0.738-1.02,1.459-1.727,1.872c-2.775,1.621-5.61,3.139-8.447,4.651
		c-5.072,2.702-10.462,4.537-16.087,5.652c-4.117,0.816-8.274,1.102-12.445,0.359c-4.032-0.718-7.19-2.972-9.456-6.204
		c-2.923-4.169-2.844-9.092-2.327-13.881c0.452-4.185,2.185-8.003,4.121-11.761c2.684-5.211,5.924-9.949,10.137-14.028
		c2.25-2.179,4.434-4.428,6.652-6.64c0.589-0.587,1.128-1.255,1.804-1.719c3.674-2.524,7.248-5.235,11.117-7.421
		c4.385-2.477,8.9-4.873,13.625-6.56c5.127-1.83,10.515-3.04,15.875-4.076c4.312-0.833,8.753-0.83,13.017,0.649
		c2.073,0.719,4.025,1.688,4.881,3.935c1.435,3.77,0.646,7.268-1.381,10.589c-3.234,5.301-7.774,9.423-12.425,13.387
		c-5.813,4.954-12.545,8.422-19.594,11.261c-4.673,1.882-9.485,3.371-14.597,3.097c-1.885-0.101-4.132,0.2-5.229-2.185
		c-0.116-0.253-1.342-0.278-1.846-0.014c-1.246,0.656-1.286,3.586-0.229,4.598c1.162,1.111,2.603,1.224,4.072,1.321
		c5.562,0.37,10.841-0.983,16.077-2.622c5.748-1.8,11.042-4.536,16.223-7.571c7.256-4.251,13.845-9.279,19.118-15.874
		c2.986-3.734,5.178-7.811,4.826-12.866c-0.182-2.605-1.316-4.542-3.353-6.071c-3.242-2.433-7.06-3.058-10.919-3.277
		c-2.74-0.156-5.541-0.061-8.255,0.336c-3.855,0.563-7.727,1.254-11.461,2.34c-8.021,2.332-15.503,5.97-22.567,10.394
		c-8.001,5.011-14.954,11.27-20.96,18.553c-4.257,5.163-7.459,10.931-9.658,17.267c-1.414,4.074-1.956,8.307-2.008,12.548
		c-0.029,2.382,0.389,5,1.415,7.12c2.643,5.459,7.557,8.025,13.37,8.663c5.235,0.575,10.439-0.186,15.328-2.139
		c4.783-1.911,9.431-4.165,14.094-6.363c2.553-1.204,5.013-2.606,7.79-4.062c-1.567,3.067-1.727,6.075-1.503,9.131
		c0.212,2.891,2.37,5.87,4.812,6.322c2.229,0.412,4.644,0.232,6.918-0.098c4.527-0.658,8.496-2.862,12.38-5.137
		C337.946,403.91,338.883,402.837,339.923,401.943z M499.548,371.102c-2.878-0.453-3.901,0.481-4.834,2.446
		c-0.446,0.939-0.164,1.674,1.049,1.787C498.448,375.586,499.839,374.081,499.548,371.102z M664.888,375.333
		c2.305-0.005,4.071-1.596,4.124-3.031c0.044-1.206-0.626-1.263-1.565-1.328c-1.742-0.121-3.577,1.833-3.579,3.125
		C663.867,374.612,664.704,375.125,664.888,375.333z"/>
	<path stroke="#FFD700" d="M489.196,383.55c-0.359,0.83-0.543,1.811-1.107,2.465c-2.837,3.292-5.835,6.445-8.644,9.759
		c-1.214,1.433-1.987,3.164-1.333,5.13c3.574,0.536,6.568-0.795,9.48-2.36c2.962-1.591,5.905-3.219,8.807-4.917
		c0.766-0.448,1.504-1.108,1.988-1.846c3.219-4.905,6.741-9.556,10.79-13.819c3.794-3.994,7.464-8.106,11.183-12.171
		c0.239-0.261,0.433-0.564,0.931-1.222c-5.168,0-9.95,0-14.626,0c-0.651-1.901-0.196-2.59,1.532-2.56
		c4.59,0.08,9.18,0.186,13.768,0.342c1.074,0.036,1.805-0.319,2.609-1.042c4.41-3.967,8.884-7.863,13.378-11.735
		c0.46-0.396,1.197-0.47,1.951-0.748c0.35,2.985-1.28,4.853-2.684,6.74c-1.685,2.266-3.551,4.398-5.442,6.714
		c0.299,0.022,0.497,0.046,0.694,0.049c6.755,0.113,13.511,0.225,20.266,0.336c0.389,0.006,0.84-0.115,1.151,0.043
		c0.422,0.214,1.083,0.723,1.027,0.958c-0.118,0.492-0.576,0.974-1.017,1.288c-0.259,0.185-0.754,0.042-1.143,0.042
		c-6.888,0.001-13.779,0.103-20.663-0.057c-2.21-0.052-3.701,0.639-5.148,2.222c-3.136,3.431-6.309,6.847-9.697,10.024
		c-5.133,4.812-10.438,9.442-15.718,14.094c-2.242,1.975-3.349,4.459-3.617,7.344c-0.087,0.94,0.245,1.673,1.534,1.742
		c3.95,0.213,7.373-1.289,10.698-3.102c2.722-1.484,5.414-3.034,8.035-4.688c1.561-0.985,3.108-2.081,4.405-3.383
		c4.82-4.836,10.314-8.546,16.812-10.747c3.129-1.06,6.332-1.323,9.581-1.092c2.582,0.183,4.253,2.506,3.031,4.096
		c-0.802,1.044-1.579,2.217-2.639,2.929c-2.241,1.505-4.644,2.772-7.012,4.082c-0.889,0.492-1.933,0.351-2.215-0.64
		c-0.257-0.905,0.354-1.504,1.437-1.892c2.698-0.966,5.128-2.482,6.99-4.721c0.323-0.389,0.532-1.29,0.305-1.625
		c-0.378-0.558-1.122-1.143-1.76-1.203c-3.098-0.291-6.087,0.278-8.929,1.57c-5.275,2.398-10.23,5.287-14.033,9.764
		c-1.572,1.851-2.94,3.887-4.275,5.921c-0.914,1.393-1.151,3.167-0.112,4.423c1.189,1.438,3.233,1.305,4.806,0.778
		c6.105-2.045,11.63-5.123,16.119-9.864c0.386-0.407,0.981-0.617,1.558-0.966c0.994,1.395-0.335,2.287-0.866,2.976
		c-1.486,1.926-1.991,4.09-2.188,6.377c-0.086,1.001,0.315,1.901,1.615,1.636c1.426-0.291,2.993-0.383,4.222-1.062
		c4.756-2.632,9.398-5.469,14.096-8.207c0.255-0.148,0.631-0.087,0.951-0.123c-0.102,0.346-0.094,0.867-0.323,1.011
		c-3.397,2.134-6.793,4.273-10.258,6.294c-2.212,1.29-4.554,2.354-6.802,3.584c-1.584,0.867-3.222,1.196-5.036,1.216
		c-2.345,0.026-3.443-0.733-2.397-3.808c0.459-1.351,1.164-2.618,1.903-4.242c-0.964,0.44-1.737,0.644-2.33,1.087
		c-3.603,2.691-7.535,4.823-11.796,6.137c-1.826,0.563-4.006,0.333-5.956,0.027c-1.522-0.239-2.006-2.786-1.107-4.767
		c0.598-1.319,1.269-2.605,1.986-4.068c-1.373,0.833-2.62,1.686-3.951,2.378c-4.284,2.228-8.301,5.049-13.078,6.201
		c-1.361,0.328-2.852,0.441-4.235,0.269c-1.602-0.198-1.95-1.656-1.762-2.977c0.232-1.627,0.786-3.209,1.254-5.015
		c-1.908,1.124-3.7,2.285-5.586,3.266c-3.181,1.655-6.333,3.431-9.672,4.693c-1.822,0.688-4.003,0.425-5.997,0.589
		c-1.682-3.579,0.337-6.066,2.125-9.111c-2.174,1.335-3.997,2.53-5.889,3.603c-5.043,2.859-10.19,5.575-16.161,5.657
		c-5.279,0.073-6.605-2.868-5.903-7.526c0.08-0.529,0.177-1.056,0.319-1.892c-3.339,1.875-6.289,3.919-9.531,5.257
		c-4.34,1.792-8.868,3.176-13.397,4.44c-1.509,0.421-3.338,0.197-4.904-0.196c-3.26-0.819-4.705-4.345-3.259-7.416
		c0.222-0.472,0.447-0.942,0.431-1.684c-1.122,0.68-2.231,1.381-3.367,2.036c-5.042,2.906-10.172,5.672-15.097,8.763
		c-1.857,1.166-3.34,2.994-4.829,4.666c-2.364,2.656-4.562,5.459-6.882,8.155c-3.687,4.284-7.417,8.531-11.129,12.793
		c-0.109,0.125-0.233,0.238-0.349,0.358c-3.075,3.186-6.149,6.373-9.225,9.558c-0.27,0.279-0.533,0.572-0.838,0.809
		c-1.6,1.246-3.031,0.669-3.389-1.316c-0.478-2.645,0.424-5.015,1.865-7.037c2.406-3.376,4.878-6.769,7.767-9.72
		c3.091-3.158,6.557-6,10.113-8.638c4.409-3.27,9.178-6.053,13.59-9.319c1.982-1.467,3.543-3.538,5.17-5.442
		c1.468-1.717,2.766-3.579,3.939-5.591c-1.241,0.806-2.422,1.731-3.734,2.397c-4.356,2.211-8.705,4.452-13.18,6.399
		c-1.179,0.513-2.963,0.389-4.184-0.124c-1.962-0.823-2.156-2.583-1.472-5.018c0.321-1.143,1.036-2.175,1.65-3.413
		c-1.907,1.117-3.654,2.293-5.53,3.206c-3.214,1.564-6.46,3.09-9.796,4.359c-1.091,0.415-2.629,0.738-3.699-0.516
		c-1.073-1.258-0.734-2.747-0.262-3.995c1.867-4.942,4.763-9.281,8.203-13.273c0.535-0.621,0.933-1.36,1.394-2.044
		c-0.129-0.134-0.259-0.269-0.388-0.404c-1.187,0.676-2.416,1.289-3.553,2.04c-5.041,3.327-10.039,6.72-15.087,10.037
		c-3.353,2.203-6.746,4.346-10.168,6.439c-0.489,0.299-1.242,0.168-1.872,0.235c-0.104-0.13-0.208-0.26-0.312-0.391
		c1.097-1.51,2.118-3.082,3.305-4.516c2.586-3.125,5.275-6.166,7.871-9.283c0.318-0.381,0.326-1.021,0.477-1.541
		c-0.44,0.14-0.942,0.186-1.311,0.433c-4.202,2.818-8.382,5.668-12.577,8.497c-0.161,0.108-0.41,0.086-0.618,0.125
		c-0.094-0.123-0.188-0.246-0.282-0.369c1.181-0.976,2.292-2.058,3.556-2.91c4.776-3.218,9.584-6.391,14.432-9.5
		c0.673-0.432,1.637-0.409,2.466-0.597c-0.077,0.995,0.174,2.198-0.299,2.941c-1.02,1.604-2.384,2.997-3.658,4.431
		c-2.12,2.386-4.285,4.732-6.414,7.11c-0.271,0.303-0.437,0.7-0.417,1.353c3.643-2.405,7.271-4.831,10.933-7.206
		c2.006-1.301,4.092-2.477,6.098-3.778c4.232-2.744,8.423-5.553,12.669-8.275c0.452-0.29,1.161-0.179,1.751-0.254
		c-0.05,0.612,0.128,1.404-0.189,1.807c-1.826,2.326-3.749,4.577-5.676,6.822c-2.708,3.155-5.291,6.404-6.661,10.387
		c-0.307,0.893-0.338,2.238,0.136,2.958c0.71,1.077,2.18,1.072,3.305,0.525c4.09-1.99,8.297-3.818,12.133-6.227
		c3.675-2.307,6.884-5.343,10.406-7.91c4.253-3.1,8.94-5.399,14.091-6.559c1.149-0.259,2.954-0.795,3.551,0.802
		c0.54,1.443-0.953,2.226-2.027,2.782c-4.393,2.272-8.821,4.478-13.272,6.635c-2.688,1.303-5.456,2.439-8.159,3.713
		c-1.407,0.663-3.067,4.81-2.774,6.374c0.254,1.353,1.266,1.732,2.253,1.554c2.493-0.451,5.167-0.716,7.359-1.848
		c4.042-2.088,7.789-4.747,11.663-7.16c0.367-0.228,0.756-0.521,1.16-0.567c0.785-0.088,1.609,0.081,0.95,1.136
		c-0.769,1.23-1.645,2.405-2.576,3.519c-1.739,2.081-3.551,4.1-5.154,6.398c5.75-3.244,11.521-6.454,17.23-9.769
		c0.899-0.522,1.58-1.47,2.267-2.3c5.456-6.59,12.025-11.572,20.364-13.884c1.395-0.387,2.995-0.25,4.469-0.082
		c1.663,0.189,2.386,1.987,1.271,3.394c-1.281,1.615-2.715,3.205-4.369,4.411c-6.083,4.436-12.845,7.462-20.207,9.103
		c-0.37,0.082-0.764,0.057-1.238,0.088c-0.254,0.95-0.558,1.872-0.742,2.818c-0.571,2.922,1.422,5.266,4.391,5.485
		c4.364,0.323,8.342-0.955,12.149-2.814c3.758-1.835,7.494-3.756,11.041-5.959c1.137-0.706,1.736-2.38,2.423-3.694
		c2.47-4.723,5.711-8.915,9.211-12.865c4.867-5.493,9.824-10.934,15.086-16.043c4.778-4.638,9.916-8.926,15.083-13.136
		c4.091-3.333,8.351-6.494,12.762-9.388c2.784-1.827,5.936-3.132,9.02-4.441c1.094-0.464,2.493-0.413,3.724-0.296
		c1.374,0.13,2.397,2.316,1.579,3.888c-1.52,2.921-3.104,5.882-5.145,8.439c-2.745,3.44-5.793,6.677-8.993,9.703
		c-4.023,3.803-8.34,7.295-12.515,10.937c-7.497,6.539-15.515,12.387-23.84,17.809c-4.555,2.966-9.237,5.737-13.87,8.582
		c-0.883,0.542-1.748,3.345-1.483,4.817c0.806,4.477,3.2,4.993,7.151,4.164c7.407-1.555,13.545-5.779,19.732-9.802
		c1.719-1.118,2.987-2.914,4.524-4.333c1.569-1.449,3.212-2.817,4.823-4.221C488.742,383.21,488.969,383.38,489.196,383.55z
		 M454.066,390.188c0.155,0.144,0.309,0.287,0.464,0.431c1.472-0.797,3.015-1.488,4.404-2.41
		c6.537-4.341,13.003-8.749,19.186-13.632c6.598-5.21,13.02-10.596,19.089-16.379c4.86-4.63,9.414-9.595,13.913-14.584
		c1.455-1.613,2.411-3.72,3.374-5.708c0.336-0.693,0.339-2.088-0.107-2.48c-0.55-0.484-1.836-0.558-2.609-0.275
		c-1.668,0.609-3.236,1.516-4.803,2.376c-6.602,3.624-12.317,8.455-17.992,13.331c-1.714,1.473-3.343,3.049-4.971,4.62
		c-4.367,4.212-8.846,8.32-13.025,12.712c-3.318,3.487-6.394,7.229-9.329,11.048C458.957,382.756,456.584,386.528,454.066,390.188z
		 M395.377,408.622c-0.103-0.115-0.206-0.231-0.309-0.346c-1.495,1.024-3.06,1.961-4.474,3.087
		c-4.877,3.883-9.799,7.719-14.505,11.803c-2.268,1.968-4.228,4.344-6.077,6.728c-1.822,2.349-3.574,4.833-3.685,8.011
		c-0.012,0.33,0.081,0.663,0.126,0.995c0.387-0.115,0.868-0.121,1.145-0.362c1.412-1.229,2.862-2.435,4.134-3.802
		c4.918-5.28,9.796-10.598,14.644-15.943C389.418,415.44,392.38,412.015,395.377,408.622z M423.198,392.009
		c7.054-1.037,12.779-4.296,18.144-8.24c1.405-1.033,2.676-2.341,3.723-3.738c0.742-0.99,0.068-2.109-1.153-1.985
		c-2.199,0.223-4.636,0.219-6.499,1.205c-4.142,2.194-7.846,5.122-10.916,8.743C425.378,389.316,424.297,390.67,423.198,392.009z
		 M527.058,365.106c-0.052-0.145-0.104-0.291-0.155-0.436c-1.198,0-2.396-0.018-3.592,0.016c-0.221,0.006-0.485,0.175-0.646,0.347
		c-2.075,2.212-4.033,4.543-6.218,6.638c-4.461,4.278-8.337,9.034-11.963,14.014c-0.831,1.141-1.641,2.296-2.46,3.444
		c0.128,0.102,0.255,0.204,0.382,0.307C511.124,381.837,519.084,373.464,527.058,365.106z M410.592,380.765
		c-0.2-0.232-0.4-0.464-0.601-0.696c-7.112,1.255-12.447,5.63-17.555,10.421c1.113-0.272,2.154-0.68,3.154-1.172
		c4.479-2.204,8.966-4.394,13.398-6.69C409.664,382.277,410.064,381.399,410.592,380.765z M535.546,353.969
		c-0.249-0.184-0.499-0.369-0.748-0.553c-3.03,2.858-6.059,5.715-9.089,8.573c0.078,0.121,0.157,0.241,0.236,0.362
		c1.468-0.311,3.152,0.709,4.417-0.876c0.985-1.235,2.076-2.393,2.975-3.686C534.173,356.585,534.818,355.248,535.546,353.969z"/>
	<path stroke="#FFD700" d="M588.143,444.321c-0.574-1.673-0.147-3.196,0.651-4.518c2.245-3.722,4.527-7.429,6.974-11.019
		c2.298-3.371,4.76-6.638,7.272-9.855c2.291-2.933,4.728-5.754,7.136-8.594c2.979-3.513,5.995-6.995,9.245-10.781
		c-1.156,0.446-2.017,0.759-2.863,1.108c-5.094,2.103-10.373,3.649-15.831,4.244c-6.37,0.695-12.528-0.074-17.441-4.817
		c-3.077-2.971-4.178-6.851-4.125-10.97c0.057-4.475,0.547-8.974,2.234-13.155c2.448-6.065,5.44-11.866,9.713-16.904
		c5.776-6.81,12.229-12.874,19.61-17.934c7.802-5.349,16.053-9.813,25.193-12.383c3.798-1.068,7.713-1.829,11.626-2.347
		c3.214-0.426,6.509-0.467,9.755-0.344c3.03,0.114,6.041,0.571,8.685,2.391c3.715,2.557,4.043,5.471,3.589,9.013
		c-0.715,5.578-4.081,9.769-7.656,13.765c-5.043,5.638-10.949,10.297-17.173,14.547c-7.713,5.266-16.144,9.077-25.252,11.023
		c-3.443,0.736-7.191,0.227-10.782,0.007c-1.484-0.091-2.957-0.879-3.155-2.77c-0.198-1.892,1.192-2.584,2.74-3.492
		c1.258,3.549,4.264,2.781,6.967,2.794c4.563,0.021,8.747-1.579,12.948-3.087c5.946-2.134,11.24-5.465,16.391-9.038
		c7.094-4.92,13.333-10.707,18.049-18.016c1.887-2.925,2.951-6.068,2.695-9.601c-0.168-2.316-2.677-4.926-5.546-5.57
		c-4.286-0.961-8.615-0.974-12.943-0.354c-3.068,0.439-6.211,0.679-9.16,1.552c-7.21,2.134-14.11,5.057-20.373,9.311
		c-3.868,2.628-7.948,5.009-11.514,8c-3.833,3.215-7.388,6.83-10.673,10.611c-3.097,3.566-5.851,7.466-8.447,11.422
		c-2.371,3.614-3.669,7.743-4.342,12.021c-0.595,3.783-0.619,7.505,0.539,11.275c1.59,5.176,5.185,8.076,10.096,9.434
		c5.93,1.64,11.86,0.683,17.678-0.815c3.46-0.891,6.855-2.049,10.247-3.182c0.738-0.246,1.435-0.805,1.991-1.377
		c6.018-6.19,11.882-12.537,18.051-18.573c3.107-3.04,6.677-5.632,10.201-8.204c0.939-0.685,2.478-0.746,3.738-0.735
		c1.156,0.01,1.599,1.909,0.758,3.278c-0.825,1.341-1.727,2.649-2.72,3.87c-3.983,4.895-8.817,8.874-13.982,12.419
		c-4.21,2.889-8.725,5.336-12.908,8.26c-1.789,1.25-3.145,3.159-4.578,4.869c-2.28,2.72-4.443,5.538-6.685,8.291
		c-3.523,4.324-7.205,8.525-10.57,12.967c-3.613,4.77-6.954,9.745-10.374,14.659c-0.904,1.298-1.518,2.755-1.139,4.395
		c0.319,1.382-1.254,2.381-3.188,2.895C589.131,444.403,588.72,444.321,588.143,444.321z M628.527,392.956
		c0.138,0.113,0.275,0.225,0.413,0.338c8.086-4.498,15.287-10.111,21.357-17.117c1.328-1.532,2.923-3.048,2.12-5.773
		c-1.014,0.425-2.095,0.622-2.831,1.235c-2.365,1.971-4.728,3.973-6.864,6.184C637.918,382.797,633.25,387.903,628.527,392.956z"/>
	<path stroke="#FFD700" d="M666.734,394.282c-3.127,1.781-6.109,3.344-8.951,5.129c-4.79,3.009-8.738,4.202-13.626,3.832
		c-1.466-3.13,0.038-5.702,1.832-8.004c2.224-2.854,4.714-5.507,7.169-8.173c1.114-1.21,2.396-2.271,3.654-3.339
		c0.328-0.278,0.852-0.325,1.32-0.49c0.479,1.397-0.149,2.224-0.927,3.078c-2.813,3.09-5.642,6.17-8.329,9.367
		c-0.85,1.011-1.341,2.351-1.874,3.593c-0.438,1.021-0.01,1.641,1.144,1.728c3.081,0.231,5.75-0.984,8.369-2.367
		c1.616-0.853,3.22-1.729,4.813-2.622c1.935-1.084,3.992-2.02,5.725-3.369c0.94-0.733,1.313-2.192,1.947-3.321
		c3.169-5.643,7.029-10.786,11.403-15.536c4.638-5.036,9.165-10.197,14.1-14.928c4.339-4.159,9.154-7.825,13.799-11.661
		c2.653-2.19,5.281-4.434,8.106-6.385c4.196-2.898,8.449-5.777,13.335-7.428c1.619-0.547,3.371-0.924,5.034,0.208
		c1.38,0.939,1.284,3.443-0.052,5.409c-2.295,3.378-4.709,6.715-7.42,9.76c-3.186,3.58-6.56,7.039-10.176,10.178
		c-6.196,5.379-12.462,10.712-19.036,15.612c-7.058,5.261-14.495,10.015-21.789,14.956c-1.302,0.882-2.695,1.641-4.086,2.381
		c-2.082,1.107-2.856,2.841-2.296,5.285c0.145,0.63,0.106,1.32,0.337,1.909c0.929,2.375,3.428,3.148,6.429,2.43
		c6.749-1.614,12.511-5.193,18.255-8.84c0.36-0.229,0.808-0.495,0.96-0.852c2.949-6.93,7.657-12.652,12.63-18.15
		c4.375-4.836,8.807-9.645,13.524-14.14c4.558-4.344,9.402-8.41,14.324-12.344c4.332-3.463,8.884-6.664,13.457-9.809
		c2.814-1.935,5.833-3.63,9.266-4.233c1.079-0.19,2.38-0.189,3.337,0.251c1.35,0.62,1.774,2.507,0.906,4.036
		c-1.575,2.775-3.033,5.735-5.152,8.059c-4.554,4.996-9.417,9.721-14.308,14.395c-3.29,3.143-6.764,6.109-10.302,8.973
		c-4.243,3.434-8.536,6.825-13.001,9.959c-5.385,3.78-10.963,7.286-16.481,10.874c-1.278,0.831-2.581,1.72-4,2.217
		c-2.181,0.765-2.406,2.615-2.352,4.277c0.067,2.052,0.324,4.47,2.825,5.153c1.407,0.384,3.068,0.372,4.5,0.042
		c7.007-1.615,12.908-5.628,19.059-9.085c0.552-0.31,1.037-0.737,1.553-1.11c0.153,0.193,0.307,0.387,0.46,0.58
		c-0.795,0.625-1.526,1.363-2.396,1.857c-4.686,2.66-9.289,5.514-14.163,7.78c-2.74,1.274-5.921,1.982-8.951,2.163
		c-5.15,0.307-7.238-3.098-6.118-7.939c0.084-0.362,0.103-0.739,0.178-1.305c-1.452,0.782-2.807,1.373-4.011,2.187
		c-4.92,3.323-10.155,5.877-16.033,7.003c-2.354,0.451-4.712,0.233-6.666-0.965c-1.479-0.907-1.826-2.843-1.733-4.623
		C666.316,396.79,666.546,395.665,666.734,394.282z M699.499,390.313c0.115,0.1,0.23,0.2,0.345,0.3
		c1.463-0.781,2.991-1.462,4.379-2.359c7.734-4.998,15.406-10.089,22.435-16.074c4.463-3.8,9.1-7.415,13.346-11.445
		c5.258-4.991,10.292-10.232,15.216-15.556c1.896-2.05,3.313-4.573,4.752-6.996c0.391-0.659,0.412-2.026-0.023-2.549
		c-0.43-0.518-1.685-0.606-2.513-0.474c-1.041,0.167-2.057,0.669-3.011,1.166c-5.185,2.704-9.93,6.077-14.388,9.833
		c-4.489,3.782-9.022,7.538-13.232,11.619c-4.975,4.823-10.135,9.49-14.427,14.985c-2.655,3.399-5.478,6.671-8.055,10.127
		C702.563,385.249,701.097,387.83,699.499,390.313z M671.465,390.208c0.146,0.14,0.292,0.28,0.438,0.421
		c1.517-0.844,3.095-1.596,4.541-2.548c6.465-4.254,13.017-8.368,18.871-13.503c6.177-5.417,12.752-10.392,18.782-15.961
		c5.109-4.718,9.774-9.932,14.451-15.094c1.421-1.568,2.349-3.636,3.253-5.591c0.338-0.729,0.277-2.039-0.186-2.616
		c-0.362-0.452-1.727-0.453-2.466-0.176c-1.666,0.626-3.245,1.502-4.814,2.359c-5.149,2.812-9.77,6.372-14.191,10.197
		c-2.953,2.555-5.925,5.094-8.761,7.775c-4.448,4.205-8.917,8.401-13.134,12.833c-3.434,3.609-6.662,7.44-9.7,11.39
		C675.977,383.037,673.81,386.691,671.465,390.208z"/>
	<path stroke="#FFD700" d="M339.923,401.943c-1.041,0.894-1.977,1.966-3.142,2.649c-3.884,2.276-7.853,4.48-12.38,5.137
		c-2.273,0.33-4.689,0.51-6.918,0.098c-2.442-0.452-4.6-3.431-4.812-6.322c-0.225-3.056-0.064-6.064,1.503-9.131
		c-2.777,1.457-5.237,2.858-7.79,4.062c-4.663,2.199-9.311,4.453-14.094,6.363c-4.888,1.953-10.093,2.713-15.328,2.139
		c-5.813-0.638-10.727-3.203-13.37-8.663c-1.026-2.12-1.444-4.738-1.415-7.12c0.052-4.24,0.594-8.474,2.008-12.548
		c2.199-6.335,5.401-12.104,9.658-17.267c6.005-7.283,12.958-13.542,20.96-18.553c7.064-4.424,14.546-8.062,22.567-10.394
		c3.734-1.086,7.607-1.777,11.461-2.34c2.713-0.397,5.515-0.492,8.255-0.336c3.859,0.219,7.677,0.844,10.919,3.277
		c2.038,1.529,3.172,3.466,3.353,6.071c0.352,5.055-1.84,9.132-4.826,12.866c-5.274,6.595-11.863,11.623-19.118,15.874
		c-5.181,3.036-10.475,5.772-16.223,7.571c-5.236,1.639-10.515,2.992-16.077,2.622c-1.469-0.098-2.911-0.21-4.072-1.321
		c-1.057-1.011-1.017-3.942,0.229-4.598c0.503-0.265,1.729-0.239,1.846,0.014c1.097,2.385,3.344,2.084,5.229,2.185
		c5.112,0.274,9.924-1.214,14.597-3.097c7.049-2.839,13.78-6.308,19.594-11.261c4.651-3.963,9.191-8.086,12.425-13.387
		c2.026-3.321,2.816-6.82,1.381-10.589c-0.856-2.247-2.808-3.216-4.881-3.935c-4.264-1.479-8.705-1.482-13.017-0.649
		c-5.36,1.036-10.748,2.246-15.875,4.076c-4.725,1.687-9.24,4.082-13.625,6.56c-3.869,2.186-7.443,4.897-11.117,7.421
		c-0.676,0.464-1.215,1.132-1.804,1.719c-2.218,2.213-4.402,4.461-6.652,6.64c-4.213,4.08-7.454,8.818-10.137,14.028
		c-1.935,3.758-3.669,7.576-4.121,11.761c-0.517,4.789-0.596,9.712,2.327,13.881c2.266,3.232,5.424,5.486,9.456,6.204
		c4.171,0.743,8.328,0.457,12.445-0.359c5.625-1.115,11.015-2.95,16.087-5.652c2.837-1.511,5.672-3.03,8.447-4.651
		c0.707-0.413,1.376-1.133,1.727-1.872c2.544-5.353,6.389-9.748,10.256-14.127c2.692-3.049,5.831-5.578,9.324-7.663
		c0.418-0.25,0.838-0.561,1.297-0.665c0.778-0.176,1.588-0.209,2.384-0.302c0.068,0.92,0.466,1.985,0.138,2.731
		c-0.756,1.717-1.695,3.413-2.86,4.879c-4.52,5.686-10.081,10.282-16.087,14.263c-3.023,2.004-3.908,4.67-4.048,7.916
		c-0.102,2.369-0.421,4.845,1.211,6.839c0.781,0.954,1.88,2.023,3.001,2.261c5.245,1.115,10.142,0.011,14.637-2.923
		c1.532-1,3.12-1.914,4.683-2.868C339.665,401.62,339.794,401.782,339.923,401.943z M319.145,389.237
		c0.317-0.168,0.67-0.292,0.946-0.511c1.797-1.422,3.478-3.014,5.384-4.266c3.35-2.202,6.083-5.017,8.365-8.228
		c2.028-2.854,2.662-3.522,1.826-5.68C328.364,375.186,323.202,381.655,319.145,389.237z"/>
	<path stroke="#FFD700" d="M499.548,371.102c0.291,2.979-1.1,4.484-3.785,4.233c-1.213-0.113-1.495-0.848-1.049-1.787
		C495.647,371.583,496.67,370.65,499.548,371.102z"/>
	<path stroke="#FFD700" d="M664.888,375.333c-0.184-0.207-1.021-0.721-1.02-1.234c0.001-1.292,1.836-3.246,3.579-3.125
		c0.939,0.065,1.61,0.122,1.565,1.328C668.959,373.737,667.193,375.327,664.888,375.333z"/>
	<path fill="#FFFFFF" stroke="#FFD700" d="M454.066,390.188c2.518-3.66,4.891-7.432,7.595-10.949
		c2.935-3.819,6.011-7.561,9.329-11.048c4.179-4.392,8.658-8.5,13.025-12.712c1.628-1.57,3.257-3.146,4.971-4.62
		c5.675-4.876,11.39-9.707,17.992-13.331c1.567-0.86,3.135-1.767,4.803-2.376c0.773-0.282,2.059-0.209,2.609,0.275
		c0.445,0.392,0.442,1.787,0.107,2.48c-0.963,1.988-1.919,4.095-3.374,5.708c-4.499,4.988-9.053,9.953-13.913,14.584
		c-6.069,5.782-12.491,11.168-19.089,16.379c-6.183,4.882-12.648,9.291-19.186,13.632c-1.389,0.922-2.932,1.613-4.404,2.41
		C454.375,390.475,454.221,390.332,454.066,390.188z"/>
	<path fill="#FFFFFF" stroke="#FFD700" d="M395.377,408.622c-2.997,3.393-5.959,6.819-9.001,10.172
		c-4.848,5.345-9.726,10.662-14.644,15.943c-1.273,1.367-2.722,2.573-4.134,3.802c-0.277,0.241-0.758,0.247-1.145,0.362
		c-0.044-0.332-0.137-0.665-0.126-0.995c0.111-3.178,1.863-5.662,3.685-8.011c1.849-2.385,3.809-4.76,6.077-6.728
		c4.706-4.084,9.628-7.92,14.505-11.803c1.414-1.126,2.978-2.063,4.474-3.087C395.171,408.391,395.274,408.506,395.377,408.622z"/>
	<path fill="#FFFFFF" stroke="#FFD700" d="M423.198,392.009c1.099-1.339,2.179-2.693,3.299-4.014
		c3.07-3.621,6.774-6.55,10.916-8.743c1.863-0.987,4.3-0.982,6.499-1.205c1.221-0.124,1.895,0.995,1.153,1.985
		c-1.047,1.396-2.318,2.705-3.723,3.738C435.977,387.713,430.253,390.971,423.198,392.009z"/>
	<path fill="#FFFFFF" stroke="#FFD700" d="M527.058,365.106c-7.974,8.358-15.934,16.73-24.653,24.33
		c-0.127-0.102-0.255-0.204-0.382-0.307c0.82-1.149,1.63-2.304,2.46-3.444c3.626-4.979,7.503-9.736,11.963-14.014
		c2.185-2.095,4.144-4.426,6.218-6.638c0.161-0.172,0.425-0.341,0.646-0.347c1.197-0.034,2.395-0.016,3.592-0.016
		C526.954,364.815,527.006,364.961,527.058,365.106z"/>
	<path fill="#FFFFFF" stroke="#FFD700" d="M410.592,380.765c-0.527,0.634-0.928,1.512-1.603,1.862
		c-4.432,2.296-8.919,4.487-13.398,6.69c-1,0.492-2.041,0.9-3.154,1.172c5.107-4.791,10.442-9.166,17.555-10.421
		C410.191,380.301,410.392,380.533,410.592,380.765z"/>
	<path fill="#FFFFFF" stroke="#FFD700" d="M535.546,353.969c-0.729,1.278-1.373,2.616-2.209,3.819
		c-0.899,1.293-1.99,2.451-2.975,3.686c-1.265,1.586-2.949,0.565-4.417,0.876c-0.078-0.121-0.157-0.241-0.236-0.362
		c3.03-2.858,6.059-5.715,9.089-8.573C535.047,353.601,535.297,353.785,535.546,353.969z"/>
	<path fill="#FFFFFF" stroke="#FFD700" d="M628.527,392.956c4.723-5.053,9.391-10.16,14.196-15.134
		c2.135-2.211,4.499-4.213,6.864-6.184c0.735-0.613,1.817-0.81,2.831-1.235c0.803,2.725-0.793,4.241-2.12,5.773
		c-6.07,7.006-13.271,12.619-21.357,17.117C628.802,393.181,628.665,393.069,628.527,392.956z"/>
	<path fill="#FFFFFF" stroke="#FFD700" d="M699.499,390.313c1.598-2.483,3.064-5.063,4.824-7.424
		c2.577-3.456,5.4-6.727,8.055-10.127c4.292-5.495,9.452-10.161,14.427-14.985c4.209-4.081,8.742-7.837,13.232-11.619
		c4.458-3.756,9.204-7.128,14.388-9.833c0.954-0.497,1.97-1,3.011-1.166c0.828-0.133,2.083-0.044,2.513,0.474
		c0.434,0.523,0.414,1.89,0.023,2.549c-1.439,2.424-2.856,4.946-4.752,6.996c-4.924,5.324-9.957,10.565-15.216,15.556
		c-4.245,4.029-8.883,7.645-13.346,11.445c-7.029,5.985-14.7,11.076-22.435,16.074c-1.388,0.897-2.916,1.578-4.379,2.359
		C699.729,390.513,699.614,390.413,699.499,390.313z"/>
	<path fill="#FFFFFF" stroke="#FFD700" d="M671.465,390.208c2.346-3.517,4.513-7.171,7.084-10.514c3.037-3.95,6.266-7.781,9.7-11.39
		c4.217-4.432,8.686-8.628,13.134-12.833c2.836-2.681,5.808-5.22,8.761-7.775c4.421-3.825,9.042-7.385,14.191-10.197
		c1.569-0.857,3.149-1.733,4.814-2.359c0.739-0.278,2.104-0.276,2.466,0.176c0.463,0.577,0.523,1.886,0.186,2.616
		c-0.904,1.954-1.832,4.023-3.253,5.591c-4.677,5.162-9.342,10.376-14.451,15.094c-6.03,5.569-12.605,10.544-18.782,15.961
		c-5.854,5.135-12.406,9.249-18.871,13.503c-1.446,0.952-3.024,1.704-4.541,2.548C671.757,390.488,671.611,390.348,671.465,390.208z
		"/>
	<path fill="#FFFFFF" stroke="#FFD700" d="M319.145,389.237c4.057-7.582,9.219-14.051,16.522-18.684
		c0.836,2.158,0.202,2.826-1.826,5.68c-2.282,3.211-5.015,6.026-8.365,8.228c-1.906,1.253-3.588,2.845-5.384,4.266
		C319.815,388.945,319.462,389.069,319.145,389.237z"/>
</g>
<g>
	<path d="M448.589,450.915l-0.728-1.976c1.612-0.468,3.138-1.188,4.577-2.158c1.439-0.971,2.57-2.046,3.393-3.224
		c0.823-1.179,1.235-2.34,1.235-3.484c0-0.849-0.273-1.517-0.819-2.002c-0.546-0.485-1.278-0.728-2.197-0.728
		c-1.092,0-2.288,0.286-3.588,0.858c-1.3,0.572-2.587,1.37-3.861,2.392c-1.274,1.023-2.492,2.254-3.653,3.692
		c-1.266,1.578-2.323,3.224-3.172,4.941c-0.849,1.716-1.491,3.463-1.924,5.24c-0.433,1.777-0.65,3.619-0.65,5.526
		c0,3.242,0.745,5.812,2.236,7.71c1.491,1.898,3.528,2.847,6.111,2.847c1.664,0,3.281-0.373,4.85-1.118
		c1.569-0.745,3.367-1.994,5.396-3.744l0.416-0.338l0.312,0.572c-2.063,2.046-4.135,3.58-6.215,4.603
		c-2.08,1.023-4.178,1.534-6.293,1.534c-1.907,0-3.601-0.455-5.084-1.365c-1.482-0.91-2.626-2.184-3.432-3.822
		c-0.806-1.638-1.209-3.558-1.209-5.76c0-1.595,0.234-3.259,0.702-4.993c0.468-1.734,1.166-3.489,2.093-5.266
		c0.927-1.777,2.024-3.497,3.289-5.162c1.335-1.768,2.817-3.35,4.447-4.746s3.263-2.475,4.902-3.237
		c1.638-0.763,3.107-1.144,4.408-1.144c1.231,0,2.215,0.351,2.951,1.053s1.105,1.651,1.105,2.847c0,1.335-0.442,2.726-1.326,4.174
		c-0.884,1.448-2.063,2.739-3.536,3.875C451.848,449.645,450.27,450.447,448.589,450.915z"/>
	<path d="M468.273,434.741l-6.839,29.982l-0.234,1.014c-0.225,0.953-0.338,1.76-0.338,2.418c0,0.537,0.1,0.975,0.299,1.313
		c0.199,0.338,0.446,0.507,0.741,0.507c0.537,0,1.396-0.641,2.574-1.924l0.416,0.364l-0.26,0.286
		c-0.988,1.161-1.716,1.946-2.184,2.353c-0.468,0.407-0.901,0.611-1.3,0.611c-0.52,0-0.975-0.29-1.365-0.871
		c-0.39-0.581-0.585-1.244-0.585-1.989c0-0.52,0.113-1.344,0.338-2.47l6.007-30.268L468.273,434.741z"/>
	<path d="M480.859,456.012l-2.444,9.517c-0.26,1.04-0.39,1.855-0.39,2.444c0,0.52,0.113,0.971,0.338,1.352
		c0.225,0.381,0.503,0.572,0.832,0.572c0.503,0,1.335-0.615,2.496-1.846l0.364,0.364l-0.286,0.338
		c-0.919,1.057-1.625,1.799-2.119,2.223c-0.494,0.425-0.923,0.637-1.287,0.637c-0.555,0-1.036-0.29-1.443-0.871
		c-0.407-0.581-0.611-1.252-0.611-2.015c0-0.555,0.208-1.812,0.624-3.77l0.208-0.988c-0.641,1.491-1.5,2.921-2.574,4.291
		c-1.803,2.288-3.528,3.432-5.175,3.432c-0.988,0-1.768-0.355-2.34-1.066s-0.858-1.664-0.858-2.86c0-1.63,0.464-3.337,1.391-5.123
		c0.927-1.786,2.08-3.255,3.458-4.408c1.378-1.153,2.717-1.729,4.018-1.729c1.37,0,2.392,0.503,3.068,1.508l0.286-0.988
		L480.859,456.012z M477.868,459.34c-0.208-0.659-0.559-1.174-1.053-1.547c-0.494-0.373-1.062-0.559-1.703-0.559
		c-0.763,0-1.569,0.351-2.418,1.053c-0.849,0.702-1.63,1.677-2.34,2.925c-0.555,0.988-1.018,2.08-1.391,3.276
		c-0.373,1.196-0.559,2.184-0.559,2.964c0,0.884,0.169,1.578,0.507,2.08c0.338,0.503,0.819,0.754,1.443,0.754
		c0.797,0,1.63-0.373,2.496-1.118c0.867-0.745,1.725-1.812,2.574-3.198c0.52-0.797,0.927-1.595,1.222-2.392s0.624-1.907,0.988-3.328
		L477.868,459.34z"/>
	<path d="M482.081,469.716l1.456-1.716c0.763,1.803,1.976,2.704,3.64,2.704c0.867,0,1.608-0.282,2.223-0.845
		c0.615-0.563,0.923-1.218,0.923-1.963c0-0.537-0.147-0.997-0.442-1.378s-0.997-1.023-2.106-1.924
		c-1.023-0.832-1.712-1.487-2.067-1.963s-0.533-1.027-0.533-1.651c0-0.815,0.238-1.569,0.715-2.262
		c0.477-0.693,1.114-1.252,1.911-1.677c0.797-0.425,1.638-0.637,2.522-0.637c0.78,0,1.435,0.195,1.963,0.585
		c0.529,0.39,0.793,0.888,0.793,1.495c0,0.797-0.338,1.344-1.014,1.638c-0.104-0.815-0.412-1.452-0.923-1.911
		c-0.511-0.459-1.166-0.689-1.963-0.689c-0.711,0-1.331,0.23-1.859,0.689c-0.529,0.459-0.793,0.984-0.793,1.573
		c0,0.728,0.451,1.448,1.352,2.158l1.508,1.222c1.474,1.161,2.21,2.349,2.21,3.562c0,0.901-0.256,1.747-0.767,2.535
		c-0.511,0.789-1.205,1.417-2.08,1.885c-0.875,0.468-1.799,0.702-2.769,0.702C484.439,471.848,483.138,471.137,482.081,469.716z"/>
	<path d="M493.418,469.716l1.456-1.716c0.763,1.803,1.976,2.704,3.64,2.704c0.867,0,1.608-0.282,2.223-0.845
		c0.615-0.563,0.923-1.218,0.923-1.963c0-0.537-0.147-0.997-0.442-1.378s-0.997-1.023-2.106-1.924
		c-1.023-0.832-1.712-1.487-2.067-1.963s-0.533-1.027-0.533-1.651c0-0.815,0.238-1.569,0.715-2.262
		c0.477-0.693,1.114-1.252,1.911-1.677c0.797-0.425,1.638-0.637,2.522-0.637c0.78,0,1.435,0.195,1.963,0.585
		c0.529,0.39,0.793,0.888,0.793,1.495c0,0.797-0.338,1.344-1.014,1.638c-0.104-0.815-0.412-1.452-0.923-1.911
		c-0.511-0.459-1.166-0.689-1.963-0.689c-0.711,0-1.331,0.23-1.859,0.689c-0.529,0.459-0.793,0.984-0.793,1.573
		c0,0.728,0.451,1.448,1.352,2.158l1.508,1.222c1.474,1.161,2.21,2.349,2.21,3.562c0,0.901-0.256,1.747-0.767,2.535
		c-0.511,0.789-1.205,1.417-2.08,1.885c-0.875,0.468-1.799,0.702-2.769,0.702C495.776,471.848,494.476,471.137,493.418,469.716z"/>
	<path d="M503.872,480.611l1.274-1.716c1.005,1.075,2.141,1.612,3.406,1.612c1.335,0,2.41-0.529,3.224-1.586
		c0.815-1.057,1.482-2.791,2.002-5.201l1.196-5.383c-1.907,2.236-3.632,3.354-5.175,3.354c-0.901,0-1.608-0.277-2.119-0.832
		c-0.511-0.555-0.767-1.3-0.767-2.236c0-0.624,0.078-1.309,0.234-2.054l1.768-9.335l2.522-1.066l-2.522,10.479
		c-0.208,0.849-0.312,1.482-0.312,1.898c0,0.589,0.178,1.07,0.533,1.443s0.828,0.559,1.417,0.559c0.641,0,1.348-0.282,2.119-0.845
		c0.771-0.563,1.634-1.409,2.587-2.535l2.236-9.933l2.444-1.066l-3.797,15.29c-0.451,1.838-0.88,3.276-1.287,4.317
		c-0.407,1.04-0.88,1.907-1.417,2.6c-1.699,2.184-3.77,3.276-6.215,3.276C505.805,481.651,504.687,481.304,503.872,480.611z"/>
	<path d="M522.594,475.67l-0.39-0.598c1.092-0.693,1.989-1.396,2.691-2.106s1.166-1.387,1.391-2.028
		c-0.485,0.381-0.936,0.572-1.352,0.572c-0.468,0-0.832-0.152-1.092-0.455c-0.26-0.303-0.39-0.698-0.39-1.183
		c0-0.711,0.225-1.322,0.676-1.833c0.451-0.511,1.005-0.767,1.664-0.767c0.537,0,0.988,0.204,1.352,0.611
		c0.364,0.407,0.546,0.914,0.546,1.521c0,1.04-0.481,2.15-1.443,3.328C525.286,473.911,524.068,474.89,522.594,475.67z"/>
	<path d="M563.211,458.976h10.921l4.447-21.271l2.73-1.352l-7.385,35.027h-1.612c-0.399-1.196-0.923-2.366-1.573-3.51
		c-0.65-1.144-1.417-2.258-2.301-3.341c-0.884-1.083-1.799-2.041-2.743-2.873c-0.945-0.832-1.885-1.474-2.821-1.924l-0.078,0.13
		c-0.988,2.271-2.189,4.295-3.601,6.072s-2.865,3.125-4.356,4.044c-0.867,0.537-1.859,1.005-2.977,1.404
		c-1.118,0.399-2.288,0.702-3.51,0.91c-1.222,0.208-2.457,0.312-3.705,0.312c-0.849,0-1.768-0.087-2.756-0.26l0.832-2.054
		c1.994,0.641,3.753,0.962,5.279,0.962c1.907,0,3.727-0.494,5.461-1.482c1.734-0.988,3.164-2.332,4.291-4.031
		c1.578-2.375,3.025-5.608,4.343-9.699c0.225-0.676,0.563-1.82,1.014-3.432c0.451-1.612,0.862-3.164,1.235-4.655
		c0.373-1.491,0.663-2.73,0.871-3.718l0.91-4.629l0.078-0.494l2.938-1.456c-0.173,1.387-0.477,3.025-0.91,4.915
		c-0.433,1.89-0.932,3.84-1.495,5.851s-1.157,3.974-1.781,5.89s-1.188,3.428-1.69,4.538L563.211,458.976z M573.925,459.86h-8.893
		c1.214,0.936,2.522,2.171,3.927,3.705c1.404,1.534,2.514,2.951,3.328,4.252L573.925,459.86z"/>
	<path d="M579.984,466.387c0-1.56,0.42-3.116,1.261-4.668c0.841-1.552,1.929-2.813,3.263-3.783s2.696-1.456,4.083-1.456
		c1.456,0,2.631,0.481,3.523,1.443s1.339,2.206,1.339,3.731c0,1.664-0.412,3.276-1.235,4.837c-0.823,1.56-1.907,2.839-3.25,3.835
		s-2.7,1.495-4.07,1.495c-1.474,0-2.661-0.498-3.562-1.495C580.434,469.33,579.984,468.017,579.984,466.387z M591.113,460.666
		c0-1.04-0.256-1.898-0.767-2.574c-0.511-0.676-1.166-1.014-1.963-1.014c-0.728,0-1.426,0.234-2.093,0.702
		c-0.667,0.468-1.279,1.153-1.833,2.054c-0.624,1.04-1.14,2.254-1.547,3.64c-0.407,1.387-0.611,2.618-0.611,3.692
		c0,1.283,0.251,2.271,0.754,2.964c0.503,0.693,1.222,1.04,2.158,1.04c1.508,0,2.834-1.049,3.979-3.146
		c0.589-1.075,1.057-2.28,1.404-3.614C590.94,463.076,591.113,461.828,591.113,460.666z"/>
	<path d="M600.552,457.494l-1.976,8.659c-0.208,0.953-0.312,1.63-0.312,2.028c0,0.624,0.147,1.127,0.442,1.508
		c0.295,0.381,0.685,0.572,1.17,0.572c0.468,0,0.897-0.134,1.287-0.403c0.39-0.269,0.984-0.828,1.781-1.677l0.312-0.312l0.39,0.39
		c-1.023,1.248-1.877,2.128-2.561,2.639c-0.685,0.511-1.357,0.767-2.015,0.767c-0.832,0-1.495-0.273-1.989-0.819
		c-0.494-0.546-0.741-1.261-0.741-2.145c0-0.659,0.13-1.612,0.39-2.86l1.69-8.347h-2.496l0.182-0.884h2.496l1.456-7.021l2.496-0.988
		l-1.82,8.009h4.213l-0.182,0.884H600.552z"/>
	<path d="M616.83,471.406l3.094-14.978c1.161-5.651,1.742-10.653,1.742-15.004c0-0.312-0.004-0.568-0.013-0.767
		c-0.009-0.199-0.013-0.42-0.013-0.663l-0.026-0.624l2.86-1.3v0.442c0,1.196-0.043,2.479-0.13,3.848
		c-0.156,2.358-0.39,4.819-0.702,7.385l-0.104,0.728c0.78-2.167,1.976-4.412,3.589-6.735c1.023-1.474,2.106-2.778,3.25-3.913
		c1.144-1.135,2.258-1.985,3.341-2.548c1.083-0.563,2.111-0.845,3.081-0.845c1.37,0,2.453,0.494,3.25,1.482s1.196,2.323,1.196,4.005
		c0,2.323-0.689,4.733-2.067,7.229c-1.378,2.496-3.216,4.689-5.513,6.579c-2.297,1.89-4.737,3.207-7.32,3.953
		c0.832,1.439,1.729,2.782,2.691,4.031c0.962,1.248,1.989,2.436,3.081,3.562s2.219,2.141,3.38,3.042l-1.898,1.846
		c-1.387-1.075-2.795-2.397-4.226-3.966c-1.43-1.569-2.678-3.155-3.745-4.759c-1.066-1.604-1.825-3.055-2.275-4.356
		c0.139,0.017,0.295,0.026,0.468,0.026c1.63,0,3.359-0.477,5.188-1.43c1.829-0.953,3.454-2.236,4.876-3.848
		c1.387-1.578,2.509-3.441,3.367-5.591c0.858-2.15,1.287-4.152,1.287-6.007c0-1.283-0.269-2.288-0.806-3.016
		c-0.537-0.728-1.274-1.092-2.21-1.092c-0.901,0-1.859,0.316-2.873,0.949c-1.014,0.633-2.02,1.508-3.016,2.626
		c-0.997,1.118-1.998,2.509-3.003,4.174c-1.109,1.89-2.02,3.814-2.73,5.773s-1.361,4.317-1.95,7.073l-2.678,12.69H616.83z"/>
	<path d="M639.115,466.387c0-1.56,0.42-3.116,1.261-4.668c0.841-1.552,1.929-2.813,3.263-3.783s2.696-1.456,4.083-1.456
		c1.456,0,2.631,0.481,3.523,1.443c0.893,0.962,1.339,2.206,1.339,3.731c0,1.664-0.412,3.276-1.235,4.837
		c-0.823,1.56-1.907,2.839-3.25,3.835s-2.7,1.495-4.07,1.495c-1.474,0-2.661-0.498-3.562-1.495
		C639.566,469.33,639.115,468.017,639.115,466.387z M650.245,460.666c0-1.04-0.256-1.898-0.767-2.574s-1.166-1.014-1.963-1.014
		c-0.728,0-1.426,0.234-2.093,0.702c-0.667,0.468-1.279,1.153-1.833,2.054c-0.624,1.04-1.14,2.254-1.547,3.64
		c-0.407,1.387-0.611,2.618-0.611,3.692c0,1.283,0.251,2.271,0.754,2.964c0.503,0.693,1.222,1.04,2.158,1.04
		c1.508,0,2.834-1.049,3.979-3.146c0.589-1.075,1.057-2.28,1.404-3.614C650.071,463.076,650.245,461.828,650.245,460.666z"/>
	<path d="M665.197,471.094l-1.716,0.546l2.054-10.583l0.182-0.91c0.104-0.503,0.156-0.919,0.156-1.248
		c0-0.763-0.303-1.144-0.91-1.144c-0.572,0-1.266,0.386-2.08,1.157s-1.673,1.885-2.574,3.341c-0.589,0.936-1.096,1.838-1.521,2.704
		s-0.815,1.79-1.17,2.769c-0.355,0.979-0.698,2.102-1.027,3.367l-1.612,0.546l2.678-14.406l2.496-1.066l-2.262,9.439
		c1.161-2.687,2.492-4.893,3.992-6.618c1.5-1.725,2.847-2.587,4.044-2.587c1.3,0,1.95,0.737,1.95,2.21
		c0,0.503-0.13,1.396-0.39,2.678l-0.858,3.875c1.682-3.224,3.103-5.5,4.265-6.826s2.314-1.989,3.458-1.989
		c0.641,0,1.144,0.191,1.508,0.572c0.364,0.381,0.546,0.927,0.546,1.638c0,0.572-0.173,1.56-0.52,2.964l-0.806,3.198l-0.26,1.014
		c-0.243,1.075-0.364,1.872-0.364,2.392c0,0.555,0.095,1.001,0.286,1.339s0.433,0.507,0.728,0.507c0.555,0,1.422-0.641,2.6-1.924
		l0.39,0.364l-0.234,0.286c-0.988,1.161-1.721,1.946-2.197,2.353c-0.477,0.407-0.914,0.611-1.313,0.611
		c-0.537,0-0.992-0.273-1.365-0.819c-0.373-0.546-0.559-1.227-0.559-2.041c0-0.503,0.113-1.326,0.338-2.47l0.962-5.383l0.156-0.936
		c0.104-0.52,0.156-0.936,0.156-1.248c0-0.312-0.095-0.563-0.286-0.754c-0.191-0.191-0.451-0.286-0.78-0.286
		c-0.381,0-0.802,0.16-1.261,0.481s-0.949,0.81-1.469,1.469s-1.101,1.526-1.742,2.6c-0.867,1.474-1.569,2.847-2.106,4.122
		C666.219,467.674,665.699,469.239,665.197,471.094z"/>
	<path d="M694.58,456.012l-2.444,9.517c-0.26,1.04-0.39,1.855-0.39,2.444c0,0.52,0.113,0.971,0.338,1.352s0.503,0.572,0.832,0.572
		c0.503,0,1.335-0.615,2.496-1.846l0.364,0.364l-0.286,0.338c-0.919,1.057-1.625,1.799-2.119,2.223s-0.923,0.637-1.287,0.637
		c-0.555,0-1.036-0.29-1.443-0.871c-0.407-0.581-0.611-1.252-0.611-2.015c0-0.555,0.208-1.812,0.624-3.77l0.208-0.988
		c-0.641,1.491-1.5,2.921-2.574,4.291c-1.803,2.288-3.528,3.432-5.175,3.432c-0.988,0-1.768-0.355-2.34-1.066
		s-0.858-1.664-0.858-2.86c0-1.63,0.464-3.337,1.391-5.123c0.927-1.786,2.08-3.255,3.458-4.408c1.378-1.153,2.717-1.729,4.018-1.729
		c1.37,0,2.392,0.503,3.068,1.508l0.286-0.988L694.58,456.012z M691.59,459.34c-0.208-0.659-0.559-1.174-1.053-1.547
		c-0.494-0.373-1.062-0.559-1.703-0.559c-0.763,0-1.569,0.351-2.418,1.053c-0.849,0.702-1.63,1.677-2.34,2.925
		c-0.555,0.988-1.018,2.08-1.391,3.276c-0.373,1.196-0.559,2.184-0.559,2.964c0,0.884,0.169,1.578,0.507,2.08
		c0.338,0.503,0.819,0.754,1.443,0.754c0.797,0,1.63-0.373,2.496-1.118c0.867-0.745,1.725-1.812,2.574-3.198
		c0.52-0.797,0.927-1.595,1.222-2.392c0.295-0.797,0.624-1.907,0.988-3.328L691.59,459.34z"/>
	<path d="M697.493,471.64l2.756-14.406l2.47-1.066l-2.236,9.543c1.439-3.034,2.869-5.339,4.291-6.917
		c1.422-1.578,2.782-2.366,4.083-2.366c0.641,0,1.161,0.212,1.56,0.637c0.399,0.425,0.598,0.992,0.598,1.703
		c0,0.399-0.095,0.962-0.286,1.69l-0.26,1.092l-0.78,3.172l-0.26,1.014c-0.26,1.04-0.39,1.838-0.39,2.392
		c0,0.555,0.095,1.001,0.286,1.339s0.442,0.507,0.754,0.507c0.537,0,1.396-0.641,2.574-1.924l0.416,0.364l-0.26,0.286
		c-0.988,1.161-1.716,1.946-2.184,2.353c-0.468,0.407-0.901,0.611-1.3,0.611c-0.537,0-0.992-0.273-1.365-0.819
		c-0.373-0.546-0.559-1.227-0.559-2.041c0-0.555,0.104-1.378,0.312-2.47l1.014-5.513c0.139-0.867,0.208-1.474,0.208-1.82
		c0-0.364-0.095-0.641-0.286-0.832c-0.191-0.191-0.451-0.286-0.78-0.286c-1.196,0-2.67,1.283-4.421,3.848
		c-0.849,1.231-1.552,2.449-2.106,3.653c-0.555,1.205-1.179,2.873-1.872,5.006l-0.234,0.702L697.493,471.64z"/>
	<path d="M725.42,467.479c-1.057,1.491-2.085,2.579-3.081,3.263c-0.997,0.685-2.102,1.027-3.315,1.027
		c-1.335,0-2.423-0.468-3.263-1.404c-0.841-0.936-1.261-2.15-1.261-3.64c0-1.56,0.407-3.146,1.222-4.759
		c0.815-1.612,1.859-2.947,3.133-4.005s2.501-1.586,3.68-1.586c0.797,0,1.439,0.221,1.924,0.663
		c0.485,0.442,0.728,1.036,0.728,1.781c0,0.676-0.256,1.322-0.767,1.937c-0.511,0.615-1.062,0.923-1.651,0.923
		c-0.26,0-0.494-0.104-0.702-0.312c1.127-0.503,1.69-1.439,1.69-2.808c0-0.485-0.126-0.862-0.377-1.131
		c-0.251-0.269-0.585-0.403-1.001-0.403c-0.641,0-1.287,0.26-1.937,0.78c-0.65,0.52-1.261,1.244-1.833,2.171
		s-1.018,1.916-1.339,2.964c-0.321,1.049-0.481,2.111-0.481,3.185c0,1.283,0.303,2.323,0.91,3.12s1.404,1.196,2.392,1.196
		c0.849,0,1.673-0.269,2.47-0.806c0.797-0.537,1.63-1.361,2.496-2.47L725.42,467.479z"/>
	<path d="M737.85,467.349l0.468,0.39c-1.075,1.422-2.124,2.449-3.146,3.081c-1.023,0.633-2.124,0.949-3.302,0.949
		c-1.404,0-2.531-0.468-3.38-1.404c-0.849-0.936-1.274-2.176-1.274-3.718c0-1.56,0.412-3.142,1.235-4.746
		c0.823-1.604,1.855-2.93,3.094-3.979s2.466-1.573,3.68-1.573c0.711,0,1.296,0.208,1.755,0.624c0.459,0.416,0.689,0.953,0.689,1.612
		c0,1.335-0.728,2.67-2.184,4.005s-3.441,2.47-5.955,3.406c-0.017,0.139-0.026,0.295-0.026,0.468c0,1.196,0.329,2.171,0.988,2.925
		c0.659,0.754,1.508,1.131,2.548,1.131c0.815,0,1.604-0.256,2.366-0.767C736.168,469.243,736.983,468.441,737.85,467.349z
		 M729.529,465.373c1.872-0.832,3.311-1.76,4.317-2.782c0.676-0.693,1.222-1.439,1.638-2.236c0.416-0.797,0.624-1.517,0.624-2.158
		c0-0.815-0.373-1.222-1.118-1.222c-1.127,0-2.267,0.888-3.419,2.665S729.737,463.327,729.529,465.373z"/>
</g>
<rect id="_x3C_Slice_x3E_" x="246" y="294" fill="none" width="535" height="206"/>
</svg>
